<svg width="262" height="147" viewBox="0 0 262 147" fill="none" xmlns="http://www.w3.org/2000/svg">
<path d="M131.631 141.184L15.6015 118.922C15.5797 118.877 15.5569 118.831 15.5332 118.782C15.266 118.229 14.8804 117.401 14.4155 116.319C13.4857 114.155 12.24 110.974 10.9926 106.94C8.49684 98.869 6 87.4009 6 73.8289C6 60.3369 8.49657 48.8686 10.9929 40.7762C12.2406 36.7315 13.4865 33.5353 14.4168 31.3579C14.8818 30.2693 15.2677 29.4358 15.5351 28.8787C15.5599 28.827 15.5837 28.7777 15.6064 28.7309L131.158 6L246.393 28.7304C246.416 28.7774 246.44 28.8269 246.465 28.8787C246.732 29.4358 247.118 30.2693 247.583 31.3579C248.513 33.5353 249.759 36.7315 251.007 40.7762C253.503 48.8686 256 60.3369 256 73.8289C256 87.8799 253.502 99.3468 251.01 107.29C249.763 111.261 248.52 114.348 247.592 116.434C247.129 117.477 246.745 118.269 246.479 118.796C246.457 118.839 246.436 118.881 246.416 118.92L131.631 141.184Z" stroke="white" stroke-width="11"/>
<path d="M131.633 13.225L19.429 35.536L19.2708 35.8527C18.9542 36.3273 12.7822 49.6191 12.7822 74.1454C12.7822 98.8302 19.2708 111.331 19.5873 111.963L19.7455 112.28L131.158 133.642L242.413 111.805L242.571 111.489C242.887 111.014 248.743 98.8302 248.743 74.1454C248.743 49.6191 242.096 35.8527 241.78 35.3778L241.622 35.0614L131.633 13.225ZM131.791 14.9655C132.108 14.9655 239.881 36.3273 240.672 36.4855C241.622 38.7009 247.319 52.1506 247.319 74.3036C247.319 96.4565 242.413 108.482 241.463 110.539C240.672 110.698 131.633 132.059 131.316 132.059C131 132.059 21.8029 111.172 21.0116 111.014C20.062 108.957 14.5231 96.6147 14.5231 74.3036C14.5231 52.1506 19.7455 39.1755 20.6951 36.9601C21.3281 36.8019 131.475 14.9655 131.791 14.9655Z" fill="white"/>
<path fill-rule="evenodd" clip-rule="evenodd" d="M67.6973 42.1819H51.8716V87.4371H67.6973C71.9702 87.4371 76.7178 84.5888 76.7178 77.31V52.3091C76.7178 44.7138 73.2362 42.1819 67.6973 42.1819ZM66.1146 51.2013H60.4175V78.7341H66.1146C67.3805 78.5759 67.6973 77.6264 67.6973 76.3608V53.2583C67.6973 52.1506 67.0641 51.2013 66.1146 51.2013Z" fill="white"/>
<path d="M86.0547 42.1819H106.153V50.5682H95.3919V59.7461H106.312V68.9237H95.3919V78.7341H106.153V87.5953H86.0547V42.1819Z" fill="white"/>
<path d="M130.05 69.2401L139.229 72.2466V78.7341C139.229 87.5953 129.734 88.3866 126.885 88.3866C123.878 88.3866 114.858 86.9625 114.858 78.7341C114.858 70.506 114.858 53.2583 114.858 53.2583C114.858 44.7138 120.713 40.916 127.202 41.0742C133.69 41.2324 139.229 44.2389 139.229 50.5682V55.6319L130.05 59.5876L129.892 53.5747C129.892 52.309 129.576 49.7772 126.885 49.7772C123.72 49.7772 123.72 52.1508 123.72 53.2583C123.72 53.2583 123.72 74.9366 123.72 74.7784C123.72 76.9936 123.562 79.6836 126.727 79.6836C129.892 79.6836 129.892 78.2595 129.892 76.3607L130.05 69.2401Z" fill="white"/>
<path d="M163.601 69.0819L172.78 72.0883V78.7341C172.78 87.5953 163.284 88.3866 160.436 88.3866C157.429 88.3866 148.408 86.9625 148.408 78.7341C148.408 70.506 148.408 53.2583 148.408 53.2583C148.408 44.7138 154.264 40.916 160.752 41.0742C167.241 41.2324 172.78 44.2389 172.78 50.5682V55.6319L163.601 59.5876L163.443 53.4165C163.443 52.1505 163.126 49.619 160.436 49.619C157.271 49.619 157.271 51.9923 157.271 53.1001C157.271 53.1001 157.271 74.7784 157.271 74.6199C157.271 76.8354 157.112 79.5254 160.277 79.5254C163.443 79.5254 163.443 78.1013 163.443 76.2025L163.601 69.0819Z" fill="white"/>
<path fill-rule="evenodd" clip-rule="evenodd" d="M192.245 87.5953H182.433V54.8406C182.433 51.2013 182.433 40.916 196.043 40.916C209.654 40.916 209.97 51.2013 209.812 54.8406V87.5953H200.316V76.2025H192.245V87.5953ZM200.316 66.2336H192.245V54.9988C192.245 52.4673 192.403 49.3026 196.202 49.3026C200.316 49.3026 200.316 52.4673 200.316 54.9988V66.2336Z" fill="white"/>
<path fill-rule="evenodd" clip-rule="evenodd" d="M75.293 109.59V96.4564L80.9904 96.2982C82.4145 96.4564 83.0476 97.0892 83.0476 98.6716V101.995C83.0476 103.261 81.9399 103.419 81.9399 103.419C81.9399 103.419 83.0476 103.735 83.0476 105.001V108.324C83.0476 108.957 83.6807 109.59 83.6807 109.59H81.6235C80.8322 109.59 80.6737 109.115 80.6737 108.482V105.634C80.5155 104.684 79.7241 104.684 79.7241 104.684H77.6669V109.59H75.293ZM80.0408 102.311H77.6669V98.6716H80.0408C80.674 98.6716 80.5155 99.4629 80.5155 99.4629V101.678C80.5155 101.678 80.5155 102.311 80.0408 102.311Z" fill="white"/>
<path fill-rule="evenodd" clip-rule="evenodd" d="M145.401 109.59V96.4564L150.941 96.2982C152.365 96.4564 152.998 97.0892 152.998 98.6716V101.995C152.998 103.261 151.89 103.419 151.89 103.419C151.89 103.419 152.998 103.735 152.998 105.001V108.324C152.998 108.957 153.631 109.59 153.631 109.59H151.573C150.782 109.59 150.624 109.115 150.624 108.482V105.634C150.466 104.684 149.674 104.684 149.674 104.684H147.617V109.59H145.401ZM149.991 102.311H147.617V98.6716H149.991C150.624 98.6716 150.466 99.4629 150.466 99.4629V101.678C150.466 101.678 150.466 102.311 149.991 102.311Z" fill="white"/>
<path d="M92.3857 96.4565V109.59H98.8742L99.3491 107.375H94.9179V104.21H98.8742V101.837H94.9179V98.8301H98.8742L99.3491 96.4565H92.3857Z" fill="white"/>
<path d="M109.002 98.8301C109.002 97.2475 109.794 96.4565 111.376 96.4565H115.016C116.599 96.6147 116.757 97.406 116.757 98.197V100.096L114.383 100.729C114.383 100.729 114.383 100.254 114.383 99.4629C114.383 98.6716 114.066 98.6716 112.959 98.6716C111.693 98.6716 111.693 98.9883 111.693 99.7794C111.693 99.7794 111.693 105.95 111.693 106.425C111.693 107.216 111.851 107.375 113.275 107.375C114.383 107.375 114.541 107.216 114.541 106.267C114.541 105.001 114.541 105.159 114.541 105.159L116.915 105.95C116.915 105.95 116.915 107.216 116.915 108.324C116.915 109.273 115.966 109.748 114.7 109.748H110.743C109.794 109.748 109.002 109.273 109.002 107.85V98.8301Z" fill="white"/>
<path d="M184.966 104.21C186.074 104.21 186.232 104.368 186.232 105.159V106.267C186.232 107.216 186.074 107.375 184.966 107.375H180.851L181.801 109.748H186.548C187.814 109.748 188.764 109.115 188.764 108.008C188.764 107.058 188.764 103.735 188.764 103.735C188.764 102.628 188.131 101.837 187.181 101.837H184.016C183.383 101.837 183.383 101.362 183.383 101.045C183.383 100.729 183.383 99.9376 183.383 99.9376C183.383 99.3047 183.383 98.9883 184.649 98.9883C185.915 98.9883 188.447 98.9883 188.447 98.9883L187.973 96.7729H183.383C181.801 96.7729 181.009 97.5642 181.009 99.1465C181.009 99.1465 181.009 101.678 181.009 102.628C181.009 103.419 181.959 104.526 182.75 104.368L184.966 104.21Z" fill="white"/>
<path fill-rule="evenodd" clip-rule="evenodd" d="M129.575 96.4565C127.993 96.4565 127.202 97.2475 127.202 98.8301V107.375C127.202 108.799 128.626 109.59 129.575 109.59H133.057C134.481 109.59 135.114 108.324 135.114 107.375V98.8301C135.114 98.8301 135.273 96.4565 133.057 96.4565H129.575ZM131.158 107.375C132.424 107.375 132.424 107.058 132.424 106.109L132.266 99.4629C132.266 98.8301 132.107 98.6716 130.842 98.6716C129.575 98.6716 129.575 98.9883 129.575 99.7794V106.425L129.586 106.476C129.734 107.223 129.764 107.375 131.158 107.375Z" fill="white"/>
<path fill-rule="evenodd" clip-rule="evenodd" d="M169.456 96.4565H163.759V109.59H169.614C170.88 109.59 171.513 108.324 171.513 107.375V98.8301C171.513 98.8301 171.672 96.4565 169.456 96.4565ZM167.557 107.375C168.823 107.375 168.823 107.058 168.823 106.109L168.665 99.9376C168.665 98.9883 168.507 98.8301 167.557 98.8301H165.975V107.375H167.557Z" fill="white"/>
</svg>
