<?xml version="1.0" encoding="UTF-8"?>
<svg id="Livello_2" data-name="Livello 2" xmlns="http://www.w3.org/2000/svg" viewBox="0 0 470 147.8">
    <defs>
        <style>
            .cls-1 {
            fill-rule: evenodd;
            }

            .cls-1, .cls-2 {
            fill: #fff;
            stroke-width: 0px;
            }
        </style>
    </defs>
    <g id="Livello_1-2" data-name="Livello 1">
        <g>
            <path class="cls-2" d="M430.9.1c-21.6,0-39,17.5-39,39s17.5,39,39,39,39-17.5,39-39S452.5.1,430.9.1ZM430.9,62.5c-12.9,0-23.4-10.5-23.4-23.4s10.5-23.4,23.4-23.4,23.4,10.5,23.4,23.4c.1,13-10.4,23.4-23.4,23.4Z"/>
            <path class="cls-2" d="M126.8.1c-8.2-.4-16,1.8-22.4,5.8-1.3.8-2.9-.1-2.9-1.6v-2.3c0-1.1-.9-1.9-1.9-1.9h-11.8c-1.1,0-1.9.9-1.9,1.9v105.5c0,1.1.9,1.9,1.9,1.9h11.8c1.1,0,1.9-.9,1.9-1.9v-33.5c0-1.5,1.6-2.4,2.9-1.6,6,3.7,13,5.8,20.5,5.8,22.2,0,40-18.5,39-40.9C163,17.3,146.8,1.1,126.8.1ZM126.4,62.5c-14.1.9-25.8-10.8-24.9-24.9.7-11.7,10.2-21.1,21.9-21.9,14.1-.9,25.8,10.8,24.9,24.9-.8,11.7-10.2,21.1-21.9,21.9Z"/>
            <path class="cls-2" d="M19.8,31.3c-1.4,0-2.3-1.5-1.7-2.7,3.9-7.6,11.8-12.9,20.9-12.9,6.6,0,12.6,2.8,16.9,7.2.4.4.9.6,1.4.6h14.5c1.4,0,2.4-1.5,1.7-2.8C66.7,8,53-.5,37.4.1,17.5.9,1.2,17,.1,36.9c-.2,2.9,0,5.7.4,8.4.1.9.9,1.6,1.9,1.6h55.9c1.4,0,2.3,1.5,1.7,2.7-3.9,7.6-11.8,12.9-20.9,12.9-6.6,0-12.6-2.8-16.9-7.2-.4-.4-.9-.6-1.4-.6H6.3c-1.4,0-2.4,1.5-1.7,2.8,6.8,12.7,20.5,21.2,36.1,20.6,19.9-.8,36.2-16.9,37.3-36.8.2-2.9,0-5.7-.4-8.4-.1-.9-.9-1.6-1.9-1.6H19.8Z"/>
            <path class="cls-2" d="M351.2,15.7c7-.3,13.4,2.5,17.9,7.2.4.4.9.6,1.4.6h14.5c1.4,0,2.4-1.5,1.7-2.8C379.8,7.9,366.1-.6,350.4.1c-20,.9-36.2,17.2-37.1,37.1-1,22.4,16.8,40.9,39,40.9,14.9,0,27.8-8.3,34.4-20.6.7-1.3-.2-2.8-1.7-2.8h-14.5c-.5,0-1,.2-1.4.6-4.3,4.4-10.3,7.2-16.9,7.2-13.5,0-24.3-11.4-23.4-25.1.9-11.8,10.6-21.2,22.4-21.7Z"/>
            <path class="cls-2" d="M227.4,5.9c-6.5-4-14.2-6.2-22.4-5.8-20,1-36.2,17.2-37.1,37.1-1,22.4,16.8,40.9,39,40.9,7.5,0,14.5-2.1,20.5-5.8,1.3-.8,2.9.1,2.9,1.6v2.3c0,1.1.9,1.9,1.9,1.9h11.8c1.1,0,1.9-.9,1.9-1.9V1.9C245.9.8,245,0,244,0h-11.8c-1.1,0-1.9.9-1.9,1.9v2.3c0,1.6-1.7,2.5-2.9,1.7ZM206.9,62.5c-12.9,0-23.4-10.5-23.4-23.4s10.5-23.4,23.4-23.4,23.4,10.5,23.4,23.4c0,12.9-10.5,23.4-23.4,23.4Z"/>
            <path class="cls-1" d="M109.3,100.7v-13.8c0-.4.3-.7.7-.7h359.3c.4,0,.7.3.7.7v13.8c0,.4-.3.7-.7.7H110c-.4,0-.7-.3-.7-.7Z"/>
            <path class="cls-1" d="M0,100.8v-14.2c0-.4.3-.7.7-.7h76.6c.4,0,.7.3.7.7v14.2c0,.4-.3.7-.7.7H.7c-.4,0-.7-.3-.7-.7Z"/>
            <path class="cls-2" d="M316.4,10.1c.5-.8.3-1.9-.5-2.5-6.5-4.8-14.5-7.6-23.2-7.6-7.5,0-14.5,2.1-20.5,5.8-1.3.8-2.9-.1-2.9-1.6V1.9c0-1.1-.9-1.9-1.9-1.9h-11.8c-1.1,0-1.9.9-1.9,1.9v74.3c0,1.1.9,1.9,1.9,1.9h11.8c1.1,0,1.9-.9,1.9-1.9v-36.7c0-12.8,10.1-23.6,22.9-23.9,5.8-.1,11.2,1.9,15.4,5.3.9.8,2.3.5,2.9-.5l5.9-10.3Z"/>
        </g>
        <g>
            <path class="cls-2" d="M5.4,147.7v-11.2H0v-3.9h15.4v3.9h-5.3v11.2h-4.7Z"/>
            <path class="cls-2" d="M20.2,147.7v-15.1h4.7v5.6h5.7v-5.6h4.7v15.1h-4.7v-5.6h-5.7v5.6h-4.7Z"/>
            <path class="cls-2" d="M46.7,138.5h8.4l-.3,3.3h-8.1v2h9v3.9h-13.7v-15.1h13.1v3.9h-8.4v2Z"/>
            <path class="cls-2" d="M84.3,132.9c.5.2,1,.4,1.4.8.4.4.7.9.8,1.4.2.5.2,1.2.2,2.1v1.5c0,.9-.1,1.5-.2,2.1-.2.5-.4,1-.8,1.4-.4.4-.9.7-1.4.8-.5.2-1.2.2-2.1.2h-5.9v4.5h-4.7v-15.1h10.5c1,.1,1.7.1,2.2.3ZM82.1,139v-2.1c0-.2-.1-.3-.3-.3h-5.4v2.7h5.4c.2,0,.3-.1.3-.3Z"/>
            <path class="cls-2" d="M107,145.3c-.2.5-.4,1-.8,1.4-.4.4-.9.7-1.4.8-.5.2-1.2.2-2.1.2h-6c-.8,0-1.5-.1-2.1-.2-.5-.2-1-.4-1.4-.8-.4-.4-.7-.8-.8-1.4-.2-.5-.2-1.2-.2-2.1v-6c0-.9.1-1.6.2-2.1.2-.5.4-1,.8-1.4.4-.4.9-.7,1.4-.8.5-.2,1.2-.2,2.1-.2h6c.8,0,1.5.1,2.1.2.5.2,1,.4,1.4.8.4.4.7.9.8,1.4.2.5.2,1.2.2,2.1v6c.1.9,0,1.6-.2,2.1ZM96.9,136.9v6.6c0,.2.1.3.3.3h5.1c.2,0,.3-.1.3-.3v-6.6c0-.2-.1-.3-.3-.3h-5.1c-.2,0-.3.1-.3.3Z"/>
            <path class="cls-2" d="M117.4,147.8l-6.5-15.1h5.3l3.6,9.9,1.7-4.3-2-5.7h5.2l3.2,9.9,3.6-9.9h5.3l-6.5,15.1h-4.7l-1.6-4.2-1.7,4.2h-4.9v.1Z"/>
            <path class="cls-2" d="M146,138.5h8.4l-.3,3.3h-8.1v2h9v3.9h-13.7v-15.1h13.1v3.9h-8.4v2Z"/>
            <path class="cls-2" d="M173.6,132.9c.5.2,1,.4,1.4.8.4.4.7.8.8,1.4.2.5.2,1.2.2,2.1v1.1c0,.7-.1,1.3-.2,1.8-.1.5-.3.9-.5,1.3-.2.4-.6.6-.9.9s-.9.4-1.4.5l3.5,4.9h-5.1l-3.2-4.9h-2.6v4.9h-4.7v-15.1h10.5c1,.1,1.7.1,2.2.3ZM171.4,138.8v-1.9c0-.2-.1-.3-.3-.3h-5.4v2.5h5.4c.2-.1.3-.1.3-.3Z"/>
            <path class="cls-2" d="M207.4,145.3c-.2.5-.4,1-.8,1.4-.4.4-.9.7-1.4.8-.5.2-1.2.2-2.1.2h-6c-.8,0-1.5-.1-2.1-.2-.5-.2-1-.4-1.4-.8-.4-.4-.7-.8-.8-1.4-.2-.5-.2-1.2-.2-2.1v-6c0-.9.1-1.6.2-2.1.2-.5.4-1,.8-1.4.4-.4.9-.7,1.4-.8.5-.2,1.2-.2,2.1-.2h6c.8,0,1.5.1,2.1.2.5.2,1,.4,1.4.8.4.4.7.9.8,1.4.2.5.2,1.2.2,2.1v6c0,.9-.1,1.6-.2,2.1ZM197.2,136.9v6.6c0,.2.1.3.3.3h5.1c.2,0,.3-.1.3-.3v-6.6c0-.2-.1-.3-.3-.3h-5.1c-.2,0-.3.1-.3.3Z"/>
            <path class="cls-2" d="M218.9,138.5h8.4l-.3,3.6h-8.1v5.6h-4.7v-15.1h13.1v3.9h-8.4v2Z"/>
            <path class="cls-2" d="M256,132.9c.5.2,1,.4,1.4.8.4.4.7.9.8,1.4.2.5.2,1.2.2,2.1v1.5c0,.9-.1,1.5-.2,2.1-.2.5-.4,1-.8,1.4-.4.4-.9.7-1.4.8-.5.2-1.2.2-2.1.2h-5.9v4.5h-4.7v-15.1h10.5c.9.1,1.6.1,2.2.3ZM253.7,139v-2.1c0-.2-.1-.3-.3-.3h-5.4v2.7h5.4c.2,0,.3-.1.3-.3Z"/>
            <path class="cls-2" d="M268.7,138.5h8.4l-.3,3.3h-8.1v2h9v3.9h-13.7v-15.1h13.1v3.9h-8.4v2Z"/>
            <path class="cls-2" d="M296.3,132.9c.5.2,1,.4,1.4.8.4.4.7.8.8,1.4s.2,1.2.2,2.1v1.1c0,.7-.1,1.3-.2,1.8-.1.5-.3.9-.5,1.3-.2.4-.6.6-.9.9s-.9.4-1.4.5l3.5,4.9h-5.1l-3.2-4.9h-2.6v4.9h-4.7v-15.1h10.5c1,.1,1.7.1,2.2.3ZM294.1,138.8v-1.9c0-.2-.1-.3-.3-.3h-5.4v2.5h5.4c.2-.1.3-.1.3-.3Z"/>
            <path class="cls-2" d="M310.1,138.5h8.4l-.3,3.6h-8.1v5.6h-4.7v-15.1h13.1v3.9h-8.4v2Z"/>
            <path class="cls-2" d="M339.2,145.3c-.2.5-.4,1-.8,1.4s-.9.7-1.4.8c-.5.2-1.2.2-2.1.2h-6c-.8,0-1.5-.1-2.1-.2-.5-.2-1-.4-1.4-.8-.4-.4-.7-.8-.8-1.4-.2-.5-.2-1.2-.2-2.1v-6c0-.9.1-1.6.2-2.1.2-.5.4-1,.8-1.4s.9-.7,1.4-.8c.5-.2,1.2-.2,2.1-.2h6c.8,0,1.5.1,2.1.2.5.2,1,.4,1.4.8.4.4.7.9.8,1.4.2.5.2,1.2.2,2.1v6c0,.9-.1,1.6-.2,2.1ZM329,136.9v6.6c0,.2.1.3.3.3h5.1c.2,0,.3-.1.3-.3v-6.6c0-.2-.1-.3-.3-.3h-5.1c-.2,0-.3.1-.3.3Z"/>
            <path class="cls-2" d="M358.6,132.9c.5.2,1,.4,1.4.8.4.4.7.8.8,1.4.2.5.2,1.2.2,2.1v1.1c0,.7-.1,1.3-.2,1.8s-.3.9-.5,1.3c-.2.4-.6.6-.9.9s-.9.4-1.4.5l3.5,4.9h-5.1l-3.2-4.9h-2.6v4.9h-4.7v-15.1h10.5c1,.1,1.7.1,2.2.3ZM356.4,138.8v-1.9c0-.2-.1-.3-.3-.3h-5.4v2.5h5.4c.2-.1.3-.1.3-.3Z"/>
            <path class="cls-2" d="M385.2,132.6v15.1h-4.7v-8.4l-4.1,5.1-4.1-5.1v8.4h-4.7v-15.1h4.7l4.1,5.2,4.1-5.2h4.7Z"/>
            <path class="cls-2" d="M395.2,147.7h-5.3l6.8-15.1h4.7l6.8,15.1h-5.3l-.9-2.3h-6l-.8,2.3ZM400.6,141.6l-1.5-4.1-1.5,4.1h3Z"/>
            <path class="cls-2" d="M413,147.7v-15.1h4.7l5.7,6.2v-6.2h4.7v15.1h-4.7v-2.8l-5.7-6.3v9h-4.7v.1Z"/>
            <path class="cls-2" d="M444.7,136.6h-5.1c-.2,0-.3.1-.3.3v6.6c0,.2.1.3.3.3h5.1c.2,0,.3-.1.3-.3v-.9l4.7.3v.5c0,1.5-.4,2.6-1.1,3.3s-1.9,1-3.5,1h-6c-.8,0-1.5-.1-2.1-.2-.5-.2-1-.4-1.4-.8-.4-.4-.7-.8-.8-1.4-.2-.5-.2-1.2-.2-2.1v-6c0-.9.1-1.6.2-2.1.2-.5.4-1,.8-1.4s.9-.7,1.4-.8c.5-.2,1.2-.2,2.1-.2h6c1.6,0,2.7.3,3.5,1,.7.7,1.1,1.8,1.1,3.4v.5l-4.7.3v-.9c0-.3-.1-.4-.3-.4Z"/>
            <path class="cls-2" d="M461,138.5h8.4l-.3,3.3h-8.1v2h9v3.9h-13.7v-15.1h13.1v3.9h-8.4v2Z"/>
        </g>
    </g>
</svg>
