<svg width="34" height="34" viewBox="0 0 34 34" fill="none" xmlns="http://www.w3.org/2000/svg">
<path d="M31.9991 24.5054V29.0305C32.0008 29.4506 31.9147 29.8664 31.7464 30.2514C31.5781 30.6363 31.3313 30.9818 31.0218 31.2658C30.7122 31.5498 30.3467 31.766 29.9488 31.9006C29.5508 32.0352 29.1292 32.0851 28.7108 32.0473C24.0692 31.543 19.6106 29.9569 15.6934 27.4166C12.0488 25.1007 8.95889 22.0107 6.64301 18.3662C4.09379 14.4311 2.50736 9.95089 2.01224 5.28846C1.97455 4.87134 2.02412 4.45094 2.1578 4.05402C2.29149 3.65711 2.50635 3.29238 2.78871 2.98306C3.07108 2.67374 3.41475 2.4266 3.79786 2.25738C4.18097 2.08815 4.59512 2.00056 5.01394 2.00016H9.53912C10.2712 1.99296 10.9808 2.25218 11.5359 2.72952C12.0909 3.20685 12.4534 3.86973 12.5559 4.5946C12.7469 6.04275 13.1011 7.46465 13.6118 8.83318C13.8147 9.37307 13.8586 9.95982 13.7383 10.5239C13.618 11.088 13.3386 11.6058 12.933 12.0159L11.0173 13.9315C13.1646 17.7079 16.2914 20.8346 20.0677 22.9819L21.9833 21.0662C22.3935 20.6607 22.9112 20.3812 23.4753 20.2609C24.0394 20.1406 24.6262 20.1845 25.1661 20.3875C26.5346 20.8981 27.9565 21.2523 29.4046 21.4433C30.1374 21.5467 30.8065 21.9158 31.2849 22.4803C31.7633 23.0449 32.0174 23.7656 31.9991 24.5054Z" stroke="#444444" stroke-width="3" stroke-linecap="round" stroke-linejoin="round"/>
</svg>
