<svg width="364" height="412" viewBox="0 0 364 412" fill="none" xmlns="http://www.w3.org/2000/svg">
<path d="M363.305 0.619995L330.259 370.819L181.716 412L33.5824 370.877L0.571411 0.619995H363.305Z" fill="#E44D26"/>
<path d="M181.938 380.523L301.968 347.246L330.208 30.894H181.938V380.523Z" fill="#F16529"/>
<path d="M117.698 121.716H181.938V76.305H181.781H68.0704L69.1574 88.488L80.3184 213.627H181.938V168.217H121.848L117.698 121.716Z" fill="#EBEBEB"/>
<path d="M127.932 236.333H103.357H82.3474L88.7094 307.634L181.729 333.457L181.938 333.399V286.153L181.739 286.206L131.165 272.55L127.932 236.333Z" fill="#EBEBEB"/>
<path d="M181.781 213.627H237.699L232.428 272.521L181.781 286.191V333.435L274.875 307.634L275.558 299.962L286.229 180.411L287.337 168.217H275.1H181.781V213.627Z" fill="white"/>
<path d="M181.781 121.605V121.716H291.323H291.469L292.38 111.509L294.449 88.488L295.535 76.305H181.781V104.509V121.605Z" fill="white"/>
</svg>
