<svg width="363" height="412" viewBox="0 0 363 412" fill="none" xmlns="http://www.w3.org/2000/svg">
<path d="M181.145 412L33.011 370.877L0 0.619995H362.734L329.688 370.819L181.145 412Z" fill="#264DE4"/>
<path d="M301.397 347.246L329.637 30.894H181.367V380.523L301.397 347.246Z" fill="#2965F1"/>
<path d="M75.677 168.217L79.747 213.627H181.367V168.217H75.677Z" fill="#EBEBEB"/>
<path d="M67.499 76.305L71.627 121.716H181.367V76.305H181.21H67.499Z" fill="#EBEBEB"/>
<path d="M181.367 286.153L181.168 286.206L130.594 272.55L127.361 236.333H102.786H81.776L88.138 307.634L181.158 333.457L181.367 333.399V286.153Z" fill="#EBEBEB"/>
<path d="M286.766 168.217L294.964 76.305H181.21V121.716H245.198L241.066 168.217H181.21V213.627H237.128L231.857 272.521L181.21 286.191V333.435L274.304 307.634L274.987 299.962L285.658 180.411L286.766 168.217Z" fill="white"/>
</svg>
