<svg width="45" height="68" viewBox="0 0 45 68" fill="none" xmlns="http://www.w3.org/2000/svg">
<path d="M22.5 33.75C22.5 27.5369 27.5367 22.5 33.75 22.5C39.9631 22.5 45 27.5369 45 33.75C45 39.9633 39.9631 45 33.75 45C27.5367 45 22.5 39.9633 22.5 33.75Z" fill="#1ABCFE"/>
<path d="M0 56.25C0 50.0369 5.03679 45 11.25 45H22.5V56.25C22.5 62.4633 17.4633 67.5 11.25 67.5C5.03679 67.5 0 62.4633 0 56.25Z" fill="#0ACF83"/>
<path d="M22.5 0V22.4999H33.75C39.9633 22.4999 45 17.4632 45 11.25C45 5.0368 39.9633 0 33.75 0H22.5Z" fill="#FF7262"/>
<path d="M0 11.25C0 17.4632 5.03679 22.4999 11.25 22.4999H22.5V0H11.25C5.03679 0 0 5.03679 0 11.25Z" fill="#F24E1E"/>
<path d="M0 33.75C0 39.9633 5.03679 45 11.25 45H22.5V22.5H11.25C5.03679 22.5 0 27.5369 0 33.75Z" fill="#A259FF"/>
</svg>
